<svg xmlns="http://www.w3.org/2000/svg" width="1284" height="359.293" viewBox="0 0 1284 359.293">
  <g id="RGB-Hex" transform="translate(41 11.473)">
    <g id="Symbols" transform="translate(-41 -11.473)">
      <g id="logo">
        <path id="Combined-Shape" d="M434.4,94.354c68.854,1.291,123.445,58.924,123.445,127.8V338.5a11.336,11.336,0,0,1-11.322,11.349H504.9A11.346,11.346,0,0,1,493.551,338.5V221.015c0-56.315-43.643-62.4-62.4-62.4s-62.4,6.086-62.4,62.4V338.5A11.342,11.342,0,0,1,357.42,349.85H315.8A11.345,11.345,0,0,1,304.455,338.5V221.015C304.455,144.162,356.818,92.883,434.4,94.354Zm233.146,129.8v2.421c0,59.525,45.027,68.413,71.857,68.413s71.857-8.888,71.857-68.413c0-59.546-45.027-68.413-71.857-68.413-26.322,0-70.627,8.56-71.837,65.992ZM739.4,359.286c-81.447,0-136.151-53.326-136.151-132.707V11.349A11.342,11.342,0,0,1,614.581,0h22.691a30.276,30.276,0,0,1,30.274,30.254v80.691c20.27-11.028,44.585-17.093,71.857-17.093,81.427,0,136.151,53.339,136.151,132.727S820.83,359.286,739.4,359.286Zm414.665-.027c-68.848-1.284-123.465-58.924-123.465-127.791V115.112a11.354,11.354,0,0,1,11.349-11.342h41.6a11.335,11.335,0,0,1,11.342,11.342V232.6c0,56.309,43.649,62.4,62.408,62.4s62.4-6.092,62.4-62.4V115.112a11.353,11.353,0,0,1,11.349-11.342h41.6A11.341,11.341,0,0,1,1284,115.112V232.6C1284,309.451,1231.657,360.737,1154.068,359.259Zm-180.195-9.416H932.291a11.363,11.363,0,0,1-11.369-11.349V11.355A11.363,11.363,0,0,1,932.291.007h22.671a30.277,30.277,0,0,1,30.274,30.261V338.495A11.362,11.362,0,0,1,973.874,349.843ZM169.628,281.477A245.012,245.012,0,0,0,253.4,231.782v.816c0,75.789-50.919,126.695-126.715,126.695-57.954,0-101.282-29.86-118.489-77.8a243.986,243.986,0,0,0,105.763,12.559A242.873,242.873,0,0,0,169.628,281.477ZM64.294,216.314a5.756,5.756,0,0,1-7.45,5.5A225.507,225.507,0,0,1,0,194.319V115.353a11.329,11.329,0,0,1,11.349-11.329h41.6a11.342,11.342,0,0,1,11.349,11.329Zm124.8-100.961A11.364,11.364,0,0,1,200.458,104h41.6a11.336,11.336,0,0,1,11.322,11.349v78.966a225.153,225.153,0,0,1-56.837,27.5,5.775,5.775,0,0,1-7.457-5.5Z" fill="#fa6019"/>
      </g>
    </g>
  </g>
</svg>
